<svg width="800" height="368" viewBox="0 0 800 368" fill="none" xmlns="http://www.w3.org/2000/svg">
<path d="M218.736 300.291C206.945 279.828 195.713 259.543 183.616 239.691C173.146 222.504 156.667 209.817 137.375 204.091C118.082 198.364 97.3501 200.005 79.1988 208.697L78.9824 208.798C78.2605 209.144 77.4352 209.204 76.6707 208.968C75.9061 208.732 75.2585 208.217 74.8566 207.525L74.0544 206.175C73.6487 205.456 73.5349 204.608 73.7363 203.807C73.9377 203.006 74.439 202.313 75.1367 201.871C95.4345 188.845 109.06 170.826 115.312 147.498C121.564 124.169 118.852 101.656 107.748 80.174C107.369 79.4537 107.278 78.6164 107.493 77.8315C107.708 77.0465 108.214 76.3727 108.907 75.9463L110.18 75.1696C110.896 74.7412 111.75 74.6092 112.561 74.8019C113.373 74.9946 114.076 75.4967 114.523 76.201C127.575 96.4096 145.606 110.124 169.163 116.402C192.721 122.68 214.878 119.776 236.283 108.761C237.012 108.379 237.86 108.292 238.652 108.517C239.443 108.742 240.118 109.263 240.537 109.971L241.211 111.13C241.604 111.804 241.736 112.598 241.583 113.362C241.431 114.127 241.004 114.809 240.384 115.281C236.286 118.221 232.346 121.375 228.579 124.73C202.042 149.726 196.223 188.921 214.572 221.15C235.036 257.174 255.894 292.982 276.573 328.879C282.495 339.18 288.263 349.571 294.401 359.745C295.964 362.401 298.199 364.597 300.882 366.112C302.231 366.75 303.706 367.077 305.198 367.07C306.69 367.064 308.162 366.723 309.505 366.073C310.848 365.424 312.029 364.482 312.961 363.316C313.893 362.151 314.552 360.791 314.889 359.338C315.342 357.316 315.547 355.246 315.501 353.175C315.501 288.444 315.501 223.727 315.501 159.022C315.53 126.989 305.816 95.7049 287.649 69.3224C269.481 42.9398 243.719 22.7069 213.783 11.3095C124.646 -22.8045 25.1183 30.4102 4.05655 123.507C-0.675356 143.947 -1.27419 165.127 2.29524 185.802C5.86466 206.476 13.5303 226.229 24.8418 243.899C36.1533 261.569 50.8825 276.801 68.1638 288.698C85.4452 300.595 104.93 308.918 125.474 313.178C156.056 319.78 187.924 316.915 216.839 304.964L217.195 304.824C217.614 304.651 217.991 304.39 218.301 304.06C218.611 303.729 218.847 303.336 218.993 302.907C219.139 302.478 219.192 302.022 219.147 301.571C219.103 301.12 218.963 300.684 218.736 300.291Z" fill="url(#paint0_linear_831_243)"/>
<path d="M738.273 185.81L738.33 156.417H741.896L770.196 122.883H798.323L760.303 167.288H754.493L738.273 185.81ZM716.07 211.233V93.4336H740.574V211.233H716.07ZM771.289 211.233L745.29 172.753L761.626 155.439L799.991 211.233H771.289Z" fill="#0E0034"/>
<path d="M647.311 212.902C641.675 212.902 636.651 211.925 632.241 209.969C627.832 207.975 624.342 205.042 621.773 201.169C619.242 197.257 617.977 192.387 617.977 186.559C617.977 181.65 618.878 177.528 620.68 174.192C622.482 170.856 624.936 168.172 628.042 166.139C631.149 164.107 634.676 162.573 638.626 161.538C642.614 160.502 646.794 159.774 651.165 159.352C656.304 158.815 660.445 158.317 663.589 157.856C666.734 157.358 669.015 156.629 670.434 155.671C671.853 154.712 672.562 153.293 672.562 151.414V151.069C672.562 147.426 671.412 144.608 669.111 142.614C666.849 140.62 663.628 139.623 659.448 139.623C655.038 139.623 651.53 140.601 648.922 142.556C646.314 144.474 644.589 146.889 643.745 149.804L621.083 147.963C622.233 142.595 624.495 137.955 627.87 134.044C631.244 130.094 635.597 127.064 640.927 124.955C646.295 122.808 652.507 121.734 659.563 121.734C664.471 121.734 669.169 122.31 673.655 123.46C678.18 124.61 682.187 126.393 685.677 128.809C689.205 131.225 691.985 134.331 694.017 138.127C696.049 141.885 697.066 146.391 697.066 151.644V211.234H673.828V198.983H673.138C671.719 201.744 669.821 204.179 667.443 206.288C665.066 208.358 662.209 209.988 658.873 211.177C655.537 212.327 651.683 212.902 647.311 212.902ZM654.329 195.992C657.933 195.992 661.116 195.282 663.877 193.864C666.638 192.406 668.804 190.451 670.377 187.997C671.949 185.542 672.735 182.762 672.735 179.656V170.281C671.968 170.779 670.914 171.239 669.571 171.661C668.268 172.045 666.791 172.409 665.142 172.754C663.494 173.061 661.845 173.348 660.196 173.617C658.547 173.847 657.051 174.058 655.709 174.249C652.833 174.671 650.322 175.342 648.174 176.263C646.027 177.183 644.359 178.429 643.17 180.001C641.981 181.535 641.387 183.453 641.387 185.753C641.387 189.089 642.595 191.64 645.011 193.403C647.465 195.129 650.571 195.992 654.329 195.992Z" fill="#0E0034"/>
<path d="M519.602 211.233V93.4336H544.105V137.723H544.853C545.926 135.346 547.479 132.93 549.512 130.476C551.582 127.984 554.267 125.913 557.564 124.264C560.9 122.577 565.042 121.733 569.988 121.733C576.431 121.733 582.374 123.42 587.819 126.795C593.265 130.131 597.617 135.173 600.876 141.922C604.136 148.633 605.766 157.05 605.766 167.173C605.766 177.028 604.174 185.349 600.991 192.137C597.847 198.886 593.552 204.005 588.107 207.494C582.7 210.946 576.642 212.671 569.931 212.671C565.176 212.671 561.131 211.885 557.794 210.313C554.497 208.741 551.793 206.766 549.684 204.388C547.575 201.973 545.965 199.538 544.853 197.083H543.76V211.233H519.602ZM543.587 167.058C543.587 172.312 544.316 176.894 545.773 180.805C547.23 184.717 549.339 187.765 552.1 189.951C554.861 192.098 558.216 193.172 562.166 193.172C566.154 193.172 569.528 192.079 572.289 189.893C575.05 187.669 577.14 184.602 578.559 180.69C580.016 176.741 580.745 172.197 580.745 167.058C580.745 161.958 580.035 157.472 578.616 153.599C577.198 149.726 575.108 146.696 572.347 144.511C569.586 142.325 566.192 141.232 562.166 141.232C558.178 141.232 554.803 142.287 552.042 144.396C549.32 146.505 547.23 149.496 545.773 153.369C544.316 157.242 543.587 161.805 543.587 167.058Z" fill="#0E0034"/>
<path d="M475.008 211.232V122.883H499.511V211.232H475.008Z" fill="#0E0034"/>
<path d="M467.704 92.1784C476.492 88.7346 482.656 82.7186 486.274 74.1051C486.391 73.8157 486.593 73.5684 486.853 73.3957C487.113 73.2229 487.42 73.1327 487.732 73.1369C488.045 73.141 488.348 73.2394 488.604 73.4191C488.86 73.5988 489.055 73.8514 489.164 74.1439C492.545 82.827 498.531 88.9845 507.193 92.6646C507.48 92.7849 507.724 92.9881 507.895 93.2481C508.065 93.5081 508.154 93.813 508.15 94.1239C508.146 94.4347 508.05 94.7373 507.872 94.9929C507.695 95.2484 507.446 95.4453 507.156 95.5583C503.002 97.1358 499.216 99.5484 496.032 102.647C492.849 105.745 490.336 109.464 488.648 113.572C488.537 113.868 488.338 114.123 488.077 114.302C487.816 114.482 487.507 114.577 487.19 114.576C486.874 114.575 486.565 114.477 486.306 114.295C486.047 114.114 485.85 113.857 485.741 113.56C482.307 104.844 476.311 98.7 467.665 95.0547C467.38 94.9357 467.136 94.7339 466.966 94.4752C466.796 94.2166 466.707 93.9129 466.711 93.6035C466.715 93.294 466.812 92.9929 466.989 92.7389C467.166 92.4849 467.415 92.2897 467.704 92.1784Z" fill="#0E0034"/>
<path d="M467.704 92.1784C476.492 88.7346 482.656 82.7186 486.274 74.1051C486.391 73.8157 486.593 73.5684 486.853 73.3957C487.113 73.2229 487.42 73.1327 487.732 73.1369C488.045 73.141 488.348 73.2394 488.604 73.4191C488.86 73.5988 489.055 73.8514 489.164 74.1439C492.545 82.827 498.531 88.9845 507.193 92.6646C507.48 92.7849 507.724 92.9881 507.895 93.2481C508.065 93.5081 508.154 93.813 508.15 94.1239C508.146 94.4347 508.05 94.7373 507.872 94.9929C507.695 95.2484 507.446 95.4453 507.156 95.5583C503.002 97.1358 499.216 99.5484 496.032 102.647C492.849 105.745 490.336 109.464 488.648 113.572C488.537 113.868 488.338 114.123 488.077 114.302C487.816 114.482 487.507 114.577 487.19 114.576C486.874 114.575 486.565 114.477 486.306 114.295C486.047 114.114 485.85 113.857 485.741 113.56C482.307 104.844 476.311 98.7 467.665 95.0547C467.38 94.9357 467.136 94.7339 466.966 94.4752C466.796 94.2166 466.707 93.9129 466.711 93.6035C466.715 93.294 466.812 92.9929 466.989 92.7389C467.166 92.4849 467.415 92.2897 467.704 92.1784Z" fill="url(#paint1_linear_831_243)"/>
<path d="M406.249 212.902C400.612 212.902 395.589 211.925 391.179 209.969C386.769 207.975 383.28 205.042 380.71 201.169C378.179 197.257 376.914 192.387 376.914 186.559C376.914 181.65 377.815 177.528 379.617 174.192C381.42 170.856 383.874 168.172 386.98 166.139C390.086 164.107 393.614 162.573 397.563 161.538C401.552 160.502 405.731 159.774 410.103 159.352C415.241 158.815 419.382 158.317 422.527 157.856C425.671 157.358 427.953 156.629 429.372 155.671C430.79 154.712 431.5 153.293 431.5 151.414V151.069C431.5 147.426 430.35 144.608 428.049 142.614C425.786 140.62 422.565 139.623 418.385 139.623C413.976 139.623 410.467 140.601 407.859 142.556C405.252 144.474 403.526 146.889 402.683 149.804L380.02 147.963C381.17 142.595 383.433 137.955 386.807 134.044C390.182 130.094 394.534 127.064 399.864 124.955C405.233 122.808 411.445 121.734 418.501 121.734C423.409 121.734 428.106 122.31 432.593 123.46C437.118 124.61 441.125 126.393 444.614 128.809C448.142 131.225 450.922 134.331 452.955 138.127C454.987 141.885 456.003 146.391 456.003 151.644V211.234H432.765V198.983H432.075C430.656 201.744 428.758 204.179 426.381 206.288C424.003 208.358 421.146 209.988 417.81 211.177C414.474 212.327 410.62 212.902 406.249 212.902ZM413.266 195.992C416.871 195.992 420.054 195.282 422.814 193.864C425.575 192.406 427.742 190.451 429.314 187.997C430.886 185.542 431.672 182.762 431.672 179.656V170.281C430.906 170.779 429.851 171.239 428.509 171.661C427.205 172.045 425.729 172.409 424.08 172.754C422.431 173.061 420.782 173.348 419.133 173.617C417.484 173.847 415.989 174.058 414.647 174.249C411.771 174.671 409.259 175.342 407.112 176.263C404.964 177.183 403.296 178.429 402.108 180.001C400.919 181.535 400.324 183.453 400.324 185.753C400.324 189.089 401.532 191.64 403.948 193.403C406.402 195.129 409.508 195.992 413.266 195.992Z" fill="#0E0034"/>
<path opacity="0.64" d="M581.137 248.269L569.319 280.859H562.529L550.69 248.269H557.501L565.754 273.348H566.094L574.326 248.269H581.137ZM600.037 281.517C596.826 281.517 594.061 280.831 591.741 279.459C589.435 278.073 587.653 276.128 586.394 273.624C585.149 271.106 584.527 268.157 584.527 264.776C584.527 261.438 585.149 258.496 586.394 255.949C587.653 253.403 589.407 251.416 591.656 249.987C593.92 248.559 596.565 247.844 599.592 247.844C601.431 247.844 603.213 248.148 604.939 248.757C606.664 249.365 608.213 250.32 609.586 251.621C610.958 252.922 612.04 254.613 612.832 256.692C613.624 258.757 614.02 261.268 614.02 264.224V266.474H588.113V261.721H607.803C607.803 260.052 607.464 258.573 606.785 257.286C606.106 255.985 605.151 254.959 603.92 254.21C602.704 253.46 601.275 253.085 599.634 253.085C597.852 253.085 596.296 253.524 594.966 254.401C593.651 255.263 592.632 256.395 591.911 257.795C591.204 259.182 590.85 260.688 590.85 262.315V266.028C590.85 268.206 591.232 270.059 591.996 271.587C592.774 273.115 593.856 274.282 595.242 275.088C596.628 275.88 598.248 276.276 600.101 276.276C601.303 276.276 602.4 276.107 603.39 275.767C604.38 275.413 605.236 274.89 605.957 274.197C606.679 273.504 607.23 272.648 607.612 271.63L613.617 272.712C613.136 274.48 612.273 276.029 611.028 277.358C609.798 278.674 608.249 279.699 606.382 280.435C604.529 281.156 602.414 281.517 600.037 281.517ZM627.403 261.509V280.859H621.059V248.269H627.149V253.573H627.552C628.302 251.847 629.476 250.461 631.074 249.414C632.687 248.368 634.716 247.844 637.164 247.844C639.384 247.844 641.329 248.311 642.999 249.245C644.668 250.164 645.962 251.536 646.881 253.361C647.801 255.186 648.261 257.442 648.261 260.129V280.859H641.916V260.893C641.916 258.531 641.301 256.685 640.07 255.355C638.84 254.012 637.149 253.34 634.999 253.34C633.528 253.34 632.22 253.658 631.074 254.294C629.942 254.931 629.044 255.865 628.379 257.095C627.729 258.312 627.403 259.783 627.403 261.509ZM671.982 248.269V253.361H654.18V248.269H671.982ZM658.954 240.46H665.299V271.29C665.299 272.521 665.483 273.447 665.85 274.07C666.218 274.678 666.692 275.095 667.272 275.321C667.866 275.534 668.51 275.64 669.203 275.64C669.712 275.64 670.158 275.604 670.54 275.534C670.921 275.463 671.218 275.406 671.431 275.364L672.576 280.605C672.209 280.746 671.685 280.888 671.006 281.029C670.327 281.185 669.479 281.27 668.46 281.284C666.791 281.312 665.235 281.015 663.792 280.393C662.349 279.77 661.182 278.808 660.291 277.507C659.4 276.206 658.954 274.572 658.954 272.606V240.46ZM699.645 267.344V248.269H706.011V280.859H699.773V275.215H699.433C698.683 276.955 697.481 278.405 695.826 279.565C694.185 280.711 692.141 281.284 689.694 281.284C687.601 281.284 685.748 280.824 684.135 279.905C682.537 278.971 681.278 277.592 680.358 275.767C679.453 273.942 679 271.686 679 268.999V248.269H685.344V268.235C685.344 270.455 685.96 272.224 687.19 273.539C688.421 274.855 690.019 275.512 691.986 275.512C693.174 275.512 694.355 275.215 695.529 274.621C696.717 274.027 697.7 273.129 698.478 271.927C699.27 270.724 699.659 269.197 699.645 267.344ZM714.535 280.859V248.269H720.667V253.446H721.007C721.601 251.692 722.647 250.313 724.147 249.308C725.66 248.29 727.372 247.781 729.282 247.781C729.678 247.781 730.144 247.795 730.682 247.823C731.234 247.851 731.665 247.887 731.976 247.929V253.997C731.722 253.927 731.269 253.849 730.618 253.764C729.968 253.665 729.317 253.615 728.666 253.615C727.167 253.615 725.83 253.934 724.656 254.57C723.496 255.193 722.577 256.063 721.898 257.18C721.219 258.283 720.879 259.542 720.879 260.957V280.859H714.535ZM750.346 281.517C747.135 281.517 744.369 280.831 742.049 279.459C739.744 278.073 737.961 276.128 736.703 273.624C735.458 271.106 734.835 268.157 734.835 264.776C734.835 261.438 735.458 258.496 736.703 255.949C737.961 253.403 739.716 251.416 741.965 249.987C744.228 248.559 746.873 247.844 749.9 247.844C751.739 247.844 753.521 248.148 755.247 248.757C756.973 249.365 758.522 250.32 759.894 251.621C761.266 252.922 762.348 254.613 763.14 256.692C763.932 258.757 764.328 261.268 764.328 264.224V266.474H738.421V261.721H758.112C758.112 260.052 757.772 258.573 757.093 257.286C756.414 255.985 755.459 254.959 754.229 254.21C753.012 253.46 751.583 253.085 749.943 253.085C748.16 253.085 746.604 253.524 745.275 254.401C743.959 255.263 742.941 256.395 742.219 257.795C741.512 259.182 741.158 260.688 741.158 262.315V266.028C741.158 268.206 741.54 270.059 742.304 271.587C743.082 273.115 744.164 274.282 745.55 275.088C746.937 275.88 748.556 276.276 750.409 276.276C751.612 276.276 752.708 276.107 753.698 275.767C754.688 275.413 755.544 274.89 756.266 274.197C756.987 273.504 757.539 272.648 757.921 271.63L763.925 272.712C763.444 274.48 762.581 276.029 761.337 277.358C760.106 278.674 758.557 279.699 756.69 280.435C754.837 281.156 752.722 281.517 750.346 281.517ZM795.789 256.225L790.039 257.244C789.799 256.508 789.417 255.808 788.894 255.143C788.384 254.478 787.691 253.934 786.814 253.509C785.937 253.085 784.841 252.873 783.525 252.873C781.729 252.873 780.23 253.276 779.027 254.082C777.825 254.874 777.224 255.9 777.224 257.159C777.224 258.248 777.627 259.125 778.433 259.79C779.239 260.455 780.541 260.999 782.337 261.424L787.514 262.612C790.513 263.305 792.748 264.373 794.219 265.816C795.69 267.259 796.426 269.133 796.426 271.439C796.426 273.391 795.86 275.131 794.728 276.658C793.611 278.172 792.048 279.36 790.039 280.223C788.045 281.086 785.732 281.517 783.101 281.517C779.452 281.517 776.474 280.739 774.168 279.183C771.863 277.613 770.448 275.385 769.925 272.499L776.057 271.566C776.439 273.164 777.224 274.374 778.412 275.194C779.6 276 781.149 276.404 783.059 276.404C785.138 276.404 786.8 275.972 788.045 275.109C789.29 274.232 789.912 273.164 789.912 271.905C789.912 270.887 789.53 270.031 788.766 269.338C788.017 268.645 786.864 268.121 785.308 267.768L779.791 266.558C776.75 265.865 774.501 264.762 773.044 263.248C771.601 261.735 770.879 259.818 770.879 257.498C770.879 255.575 771.417 253.891 772.492 252.448C773.567 251.006 775.052 249.881 776.948 249.075C778.843 248.254 781.015 247.844 783.462 247.844C786.984 247.844 789.756 248.608 791.779 250.136C793.802 251.649 795.139 253.679 795.789 256.225Z" fill="#0E0034"/>
<defs>
<linearGradient id="paint0_linear_831_243" x1="0.0835995" y1="184.044" x2="315.564" y2="184.044" gradientUnits="userSpaceOnUse">
<stop stop-color="#EB9AD9"/>
<stop offset="1" stop-color="#752EE6"/>
</linearGradient>
<linearGradient id="paint1_linear_831_243" x1="466.722" y1="93.8614" x2="508.158" y2="93.8614" gradientUnits="userSpaceOnUse">
<stop stop-color="#EB9AD9"/>
<stop offset="1" stop-color="#752EE6"/>
</linearGradient>
</defs>
</svg>
